# xmcd
#
# Track frame offsets: 
#        150
#        18855
#        39497
#        79729
#        92328
#        102167
#        157113
#        209908
#        223769
#        254854
#        290740
#        294781
#        333665
#
# Disc length: 4795 seconds
#
# Revision: 0
# Processed by: cddbd v1.5.1PL0 Copyright (c) Steve Scherf et al.
# Submitted via: ExactAudioCopy v0.95a5
#
DISCID=c512b90d
DTITLE=DZEM - WEHIKUL CZASU Spodek '92 vol. 2
DYEAR=2003
DGENRE=Blues
TTITLE0=Joza's silesian sound
TTITLE1=Jak malowany ptak
TTITLE2=List do M.
TTITLE3=Smiech czy lzy
TTITLE4=Letni spacer z Agnieszka
TTITLE5=Naiwne pytania
TTITLE6=Jesiony
TTITLE7=Kaczor, cos ty zrobil
TTITLE8=Czerwony jak cegla
TTITLE9=Czarny chleb
TTITLE10=Pozegnanie 
TTITLE11=Harley moj
TTITLE12=data
EXTD=
EXTT0=
EXTT1=
EXTT2=
EXTT3=
EXTT4=
EXTT5=
EXTT6=
EXTT7=
EXTT8=
EXTT9=
EXTT10=
EXTT11=
EXTT12=
PLAYORDER=
